<svg xmlns="http://www.w3.org/2000/svg" fill="none" viewBox="237.94 533 1166.03 588.5">
<path d="M1172.85 696V680.307H1185.53V620.115C1185.53 614.813 1184.17 610.871 1181.44 608.292C1178.87 605.712 1175.28 604.422 1170.7 604.422C1167.41 604.422 1164.25 605.139 1161.25 606.572C1158.38 608.005 1156.02 610.298 1154.15 613.451C1152.44 616.604 1151.58 620.975 1151.58 626.564H1146.63C1146.63 617.536 1147.78 609.868 1150.07 603.562C1152.51 597.113 1156.38 592.241 1161.68 588.944C1166.98 585.648 1174.14 584 1183.16 584C1193.19 584 1201.5 586.795 1208.09 592.384C1214.68 597.973 1217.97 606.93 1217.97 619.255V680.307H1231.08V696H1172.85ZM1101.08 696V680.307H1118.92V601.413H1102.8V585.72H1147.71V619.685L1151.58 619.04V680.307H1164.47V696H1101.08Z" fill="#FF6800"/>
<path d="M998.025 646.097C993.53 646.097 989.513 644.797 985.972 642.198C982.567 639.598 980.865 635.699 980.865 630.5C980.865 624.343 982.976 619.213 987.198 615.108C991.419 611.004 996.935 607.994 1003.74 606.078C1010.69 604.026 1018.11 603 1026.01 603C1039.09 603 1049.1 605.736 1056.04 611.209C1062.99 616.682 1066.39 625.027 1066.26 636.246L1037.66 632.757C1037.66 626.874 1035.95 622.565 1032.55 619.828C1029.14 616.955 1024.51 615.519 1018.66 615.519C1014.84 615.519 1011.23 616.066 1007.83 617.16C1004.56 618.255 1001.77 619.828 999.455 621.881C997.276 623.933 995.709 626.532 994.756 629.679V621.06C1000.34 621.06 1004.83 622.017 1008.24 623.933C1011.64 625.711 1013.35 628.858 1013.35 633.373C1013.35 637.341 1011.98 640.488 1009.26 642.813C1006.54 645.002 1002.79 646.097 998.025 646.097ZM1068.09 713C1058.7 713 1051.75 710.4 1047.26 705.201C1042.9 699.866 1040.72 692.478 1040.72 683.037V676.881H1037.25V650.407H1036.43L1037.66 641.787V632.757L1066.26 636.246V684.269C1066.26 686.731 1066.87 688.715 1068.09 690.22C1069.32 691.725 1071.02 692.478 1073.2 692.478C1075.65 692.478 1077.49 691.725 1078.72 690.22C1079.94 688.715 1080.56 686.731 1080.56 684.269V643.019H1096.08V682.832C1096.08 691.999 1093.83 699.318 1089.34 704.791C1084.84 710.264 1077.76 713 1068.09 713ZM1005.38 712.795C995.028 712.795 986.857 710.264 980.865 705.201C975.009 700.002 972.081 693.299 972.081 685.09C972.081 678.933 973.374 673.871 975.962 669.903C978.686 665.799 982.431 662.447 987.198 659.847C991.964 657.248 997.344 655.195 1003.34 653.69L1020.7 649.175C1024.38 648.081 1027.44 646.918 1029.89 645.687C1032.34 644.455 1034.25 642.813 1035.61 640.761C1036.97 638.709 1037.66 636.041 1037.66 632.757L1038.27 650.407H1037.25C1036.43 652.459 1035 654.306 1032.96 655.948C1030.91 657.453 1028.12 658.821 1024.58 660.052L1018.66 662.104C1015.39 663.199 1012.66 664.499 1010.49 666.004C1008.31 667.372 1006.6 669.082 1005.38 671.134C1004.29 673.05 1003.74 675.444 1003.74 678.317C1003.74 682.558 1005.04 685.91 1007.63 688.373C1010.21 690.699 1013.62 691.862 1017.84 691.862C1021.38 691.862 1024.58 691.109 1027.44 689.604C1030.44 687.963 1032.82 685.432 1034.59 682.011C1036.36 678.454 1037.25 673.871 1037.25 668.261L1042.56 670.108C1042.69 679.959 1041.26 688.031 1038.27 694.325C1035.27 700.618 1030.98 705.27 1025.4 708.28C1019.81 711.29 1013.14 712.795 1005.38 712.795Z" fill="#FF6800"/>
<path d="M890.476 749C873.23 749 858.078 745.47 845.018 738.411C831.958 731.352 821.828 721.184 814.629 707.906C807.597 694.46 804.081 678.324 804.081 659.5C804.081 640.676 807.597 624.624 814.629 611.346C821.661 597.9 831.456 587.648 844.013 580.589C856.738 573.53 871.221 570 887.462 570C903.201 570 916.177 572.857 926.39 578.572C936.771 584.286 944.473 592.354 949.496 602.775C954.686 613.195 957.281 625.633 957.281 640.087H947.738C947.235 631.179 945.226 622.944 941.71 615.38C938.361 607.649 933.255 601.43 926.39 596.724C919.693 592.018 910.902 589.665 900.019 589.665C889.304 589.665 879.927 592.438 871.891 597.985C864.021 603.531 857.826 611.346 853.306 621.431C848.952 631.515 846.776 643.281 846.776 656.727C846.776 669.669 849.036 681.014 853.557 690.762C858.078 700.51 864.273 708.074 872.142 713.452C880.179 718.831 889.555 721.52 900.27 721.52C910.819 721.52 919.525 719.335 926.39 714.965C933.422 710.427 938.864 704.376 942.715 696.813C946.566 689.081 948.91 680.509 949.747 671.097H968.081C967.578 685.384 964.397 698.493 958.537 710.427C952.844 722.192 944.305 731.604 932.92 738.663C921.702 745.554 907.554 749 890.476 749ZM957.281 640.087L946.733 615.632V573.53H966.825V640.087H957.281Z" fill="#FF6800"/>
<path d="M715.402 735.212C719.077 735.212 722.216 734.446 724.82 732.914C727.576 731.535 730.103 729.313 732.4 726.249C734.85 723.338 737.071 719.508 739.062 714.759L753.303 683.046L756.519 677.76L787.07 600.776H767.545V584H818.081V600.776H806.366L762.262 708.095C758.433 717.287 754.375 724.87 750.087 730.845C745.8 736.974 740.823 741.493 735.157 744.404C729.644 747.468 722.982 749 715.172 749L715.402 735.212ZM748.48 720.504L699.093 600.776H687.378V584H755.6V600.776H735.846L764.559 677.301L748.48 720.504ZM702.079 713.38C706.367 713.38 709.812 714.376 712.416 716.368C715.172 718.513 716.55 721.5 716.55 725.33C716.55 729.313 715.172 732.224 712.416 734.063C709.812 735.901 706.443 736.897 702.309 737.05L701.619 728.777C702.691 731.075 704.452 732.684 706.903 733.603C709.353 734.675 712.186 735.212 715.402 735.212L715.172 749C706.137 749 698.863 747.008 693.35 743.025C687.837 739.042 685.081 733.833 685.081 727.398C685.234 722.955 686.842 719.508 689.904 717.057C693.12 714.606 697.178 713.38 702.079 713.38Z" fill="#FF6800"/>
<path d="M603.443 627.881C598.876 627.881 594.794 626.557 591.196 623.91C587.736 621.264 586.006 617.294 586.006 612C586.006 605.731 588.151 600.507 592.441 596.328C596.731 592.149 602.336 589.085 609.255 587.134C616.313 585.045 623.855 584 631.881 584C645.166 584 655.338 586.786 662.395 592.358C669.453 597.93 672.913 606.428 672.774 617.851L643.713 614.299C643.713 608.308 641.983 603.92 638.524 601.134C635.064 598.209 630.359 596.746 624.408 596.746C620.534 596.746 616.866 597.303 613.407 598.418C610.086 599.532 607.249 601.134 604.896 603.224C602.682 605.313 601.09 607.96 600.122 611.164V602.388C605.796 602.388 610.362 603.363 613.822 605.313C617.282 607.124 619.011 610.328 619.011 614.925C619.011 618.965 617.628 622.169 614.86 624.537C612.092 626.766 608.286 627.881 603.443 627.881ZM674.642 696C665.094 696 658.036 693.353 653.469 688.06C649.041 682.627 646.827 675.104 646.827 665.493V659.224H643.298V632.269H642.468L643.713 623.493V614.299L672.774 617.851V666.746C672.774 669.254 673.397 671.274 674.642 672.806C675.888 674.338 677.618 675.104 679.832 675.104C682.323 675.104 684.191 674.338 685.436 672.806C686.682 671.274 687.305 669.254 687.305 666.746V624.746H703.081V665.284C703.081 674.617 700.797 682.07 696.23 687.642C691.664 693.214 684.468 696 674.642 696ZM610.916 695.791C600.399 695.791 592.095 693.214 586.006 688.06C580.056 682.766 577.081 675.94 577.081 667.582C577.081 661.313 578.395 656.159 581.025 652.119C583.792 647.94 587.598 644.527 592.441 641.881C597.285 639.234 602.751 637.144 608.84 635.612L626.484 631.015C630.221 629.901 633.334 628.716 635.825 627.463C638.316 626.209 640.254 624.537 641.637 622.448C643.021 620.358 643.713 617.642 643.713 614.299L644.336 632.269H643.298C642.468 634.358 641.015 636.239 638.939 637.91C636.863 639.443 634.026 640.836 630.428 642.09L624.408 644.179C621.087 645.294 618.319 646.617 616.105 648.149C613.891 649.542 612.161 651.284 610.916 653.373C609.809 655.323 609.255 657.761 609.255 660.687C609.255 665.005 610.57 668.418 613.199 670.925C615.829 673.294 619.288 674.478 623.578 674.478C627.176 674.478 630.428 673.711 633.334 672.179C636.379 670.507 638.8 667.93 640.6 664.448C642.399 660.826 643.298 656.159 643.298 650.448L648.695 652.328C648.833 662.358 647.38 670.577 644.336 676.985C641.291 683.393 636.932 688.129 631.258 691.194C625.585 694.259 618.804 695.791 610.916 695.791Z" fill="#FF6800"/>
<path d="M437.081 692V674.748H457.27V550.019H437.313V533H494.168V674.748H533.386V692H437.081ZM494.168 623.457V605.739H521.319C530.756 605.739 538.182 603.485 543.597 598.978C549.166 594.315 551.951 587.399 551.951 578.229C551.951 569.059 549.166 562.22 543.597 557.713C538.182 553.05 530.756 550.718 521.319 550.718H494.168V533H534.082C550.79 533 564.095 536.808 573.997 544.424C584.053 551.884 589.081 563.152 589.081 578.229C589.081 593.15 584.053 604.418 573.997 612.034C564.095 619.65 550.79 623.457 534.082 623.457H494.168Z" fill="#FF6800"/>
<path d="M1089.08 974V945.742H1119.52V738.258H1090.62V710H1178.1V945.742H1199.68V974H1089.08ZM1218.18 974V945.742H1243.61L1192.74 873.355L1227.43 838.516L1306.04 945.742H1326.08V974H1218.18ZM1173.86 909.742L1154.98 888.065L1248.24 803.677H1213.94V775.419H1314.9V803.677H1292.17L1173.86 909.742Z" fill="#FF6800"/>
<path d="M754.581 969C731.79 969 711.746 964.622 694.447 955.866C677.423 947.109 664.106 934.522 654.496 918.104C644.886 901.687 640.081 881.985 640.081 859C640.081 835.741 644.886 816.04 654.496 799.896C664.106 783.478 677.423 770.891 694.447 762.134C711.746 753.378 731.79 749 754.581 749C777.371 749 797.278 753.378 814.302 762.134C831.326 770.891 844.643 783.478 854.253 799.896C864.138 816.04 869.081 835.741 869.081 859C869.081 881.985 864.138 901.687 854.253 918.104C844.643 934.522 831.326 947.109 814.302 955.866C797.278 964.622 777.371 969 754.581 969ZM754.581 940.679C764.191 940.679 772.291 937.532 778.881 931.239C785.471 924.672 790.551 915.095 794.12 902.507C797.69 889.92 799.474 874.597 799.474 856.537C799.474 839.572 797.69 825.206 794.12 813.44C790.551 801.674 785.471 792.644 778.881 786.351C772.291 780.057 764.191 776.91 754.581 776.91C744.97 776.91 736.733 780.194 729.868 786.761C723.278 793.055 718.199 802.358 714.629 814.672C711.06 826.711 709.275 841.488 709.275 859C709.275 876.512 711.06 891.425 714.629 903.739C718.199 915.779 723.278 924.945 729.868 931.239C736.733 937.532 744.97 940.679 754.581 940.679Z" fill="#FF6800"/>
<path d="M986.581 974C963.79 974 943.746 969.622 926.447 960.866C909.423 952.109 896.106 939.522 886.496 923.104C876.886 906.687 872.081 886.985 872.081 864C872.081 840.741 876.886 821.04 886.496 804.896C896.106 788.478 909.423 775.891 926.447 767.134C943.746 758.378 963.79 754 986.581 754C1009.37 754 1029.28 758.378 1046.3 767.134C1063.33 775.891 1076.64 788.478 1086.25 804.896C1096.14 821.04 1101.08 840.741 1101.08 864C1101.08 886.985 1096.14 906.687 1086.25 923.104C1076.64 939.522 1063.33 952.109 1046.3 960.866C1029.28 969.622 1009.37 974 986.581 974ZM986.581 945.679C996.191 945.679 1004.29 942.532 1010.88 936.239C1017.47 929.672 1022.55 920.095 1026.12 907.507C1029.69 894.92 1031.47 879.597 1031.47 861.537C1031.47 844.572 1029.69 830.206 1026.12 818.44C1022.55 806.674 1017.47 797.644 1010.88 791.351C1004.29 785.057 996.191 781.91 986.581 781.91C976.97 781.91 968.733 785.194 961.868 791.761C955.278 798.055 950.199 807.358 946.629 819.672C943.06 831.711 941.275 846.488 941.275 864C941.275 881.512 943.06 896.425 946.629 908.739C950.199 920.779 955.278 929.945 961.868 936.239C968.733 942.532 976.97 945.679 986.581 945.679Z" fill="#FF6800"/>
<path d="M524.039 974C498.697 974 476.43 968.834 457.238 958.501C438.047 948.169 423.161 933.285 412.581 913.851C402.247 894.17 397.081 870.553 397.081 843C397.081 815.447 402.247 791.953 412.581 772.518C422.915 752.838 437.309 737.831 455.762 727.499C474.461 717.166 495.744 712 519.61 712C542.739 712 561.807 716.182 576.816 724.546C592.07 732.911 603.388 744.719 610.77 759.972C618.397 775.224 622.211 793.429 622.211 814.586H608.186C607.448 801.547 604.496 789.493 599.329 778.423C594.408 767.106 586.903 758.004 576.816 751.115C566.974 744.227 554.057 740.783 538.064 740.783C522.317 740.783 508.538 744.842 496.728 752.961C485.164 761.079 476.061 772.518 469.417 787.279C463.02 802.039 459.822 819.26 459.822 838.941C459.822 857.884 463.143 874.489 469.787 888.758C476.43 903.026 485.533 914.097 497.097 921.969C508.908 929.841 522.686 933.777 538.433 933.777C553.934 933.777 566.728 930.579 576.816 924.183C587.149 917.541 595.146 908.685 600.805 897.614C606.464 886.298 609.909 873.751 611.139 859.975H638.081C637.342 880.885 632.668 900.074 624.056 917.541C615.691 934.762 603.142 948.538 586.411 958.87C569.926 968.957 549.136 974 524.039 974ZM622.211 814.586L606.71 778.792V717.166H636.235V814.586H622.211Z" fill="#FF6800"/>
<path d="M1251.06 732.491L1394.47 708.493M1251.06 732.491L1255.06 756.364L1398.47 732.366L1394.47 708.493M1251.06 732.491L1247.07 708.618C1240.45 669.063 1267.18 631.626 1306.79 624.999M1394.47 708.493L1390.48 684.62C1383.86 645.065 1346.39 618.372 1306.79 624.999M1306.79 624.999L1310.78 648.872M1310.78 648.872C1337.18 644.454 1362.16 662.25 1366.57 688.619L1370.57 712.493L1274.96 728.491L1270.97 704.618C1266.55 678.248 1284.38 653.29 1310.78 648.872ZM1385.83 681.307L1365.91 684.64M1270.3 700.639L1250.38 703.972M1275.89 676.88L1253.8 668.634M1290.38 659.043L1274.44 639.727M1333.38 651.847L1342.16 628.395M1352.89 663.994L1371.09 649.005M1323.51 669.14C1333.82 680.946 1339.47 689.805 1340.46 695.716C1342.42 707.436 1334.5 718.528 1322.77 720.492C1311.03 722.456 1299.93 714.546 1297.97 702.827C1297.51 700.098 1297.79 696.451 1298.8 691.887L1313.01 697.187L1323.51 669.14Z" stroke="#FF6800" stroke-width="11" stroke-linejoin="round"/>
<path d="M337.142 585.4L399.826 669.597C411.964 685.901 416.05 706.855 410.932 726.557C406.461 743.77 388.915 754.108 371.742 749.647L269.826 723.175C251.697 718.465 240.826 699.917 245.547 681.744C247.94 672.531 254.077 664.741 262.467 660.268L309.484 635.201C327.683 625.498 338.512 605.999 337.142 585.4ZM337.142 585.4L365.482 654.849C373.373 674.187 374.798 695.574 369.542 715.806C365.071 733.019 347.525 743.357 330.352 738.896L314.883 734.878C296.86 730.197 286.054 711.757 290.746 693.692C291.735 689.886 293.379 686.28 295.604 683.039L320.191 647.226C332.627 629.111 338.6 607.325 337.142 585.4Z" stroke="#FF6800" stroke-width="13" stroke-linejoin="round"/>
<path d="M1262.78 1015H540.222M536.093 1114H1266.91C1321.63 1114 1366 1069.68 1366 1015H437C437 1069.68 481.365 1114 536.093 1114Z" stroke="#FF6800" stroke-width="15" stroke-linecap="square" stroke-linejoin="round"/>
</svg>